<?xml version="1.0" standalone="no"?>
<!DOCTYPE svg PUBLIC "-//W3C//DTD SVG 20010904//EN"
 "http://www.w3.org/TR/2001/REC-SVG-20010904/DTD/svg10.dtd">
<svg version="1.0" xmlns="http://www.w3.org/2000/svg"
 width="198.000000pt" height="198.000000pt" viewBox="0 0 198.000000 198.000000"
 preserveAspectRatio="xMidYMid meet">
<metadata>
Created by potrace 1.10, written by Peter Selinger 2001-2011
</metadata>
<g transform="translate(0.000000,198.000000) scale(0.100000,-0.100000)"
fill="#000000" stroke="none">
<path d="M650 990 c0 -104 3 -190 8 -190 4 0 7 86 7 190 0 105 -3 190 -7 190
-5 0 -8 -85 -8 -190z"/>
<path d="M452 1148 c-6 -7 -36 -26 -66 -43 l-56 -30 0 -86 0 -85 68 -38 67
-38 73 38 c70 38 72 40 72 76 0 21 -3 38 -6 38 -3 0 -35 -16 -71 -36 l-64 -35
-65 36 c-35 20 -64 40 -64 45 0 5 29 25 65 45 65 37 65 37 65 81 0 47 -2 51
-18 32z m-2 -47 c0 -10 -7 -22 -16 -25 -10 -4 -13 -2 -8 6 4 7 3 8 -4 4 -7 -4
-12 -14 -12 -22 0 -8 -4 -13 -9 -10 -5 3 -14 -1 -21 -9 -14 -17 -30 -11 -30
11 0 8 5 12 10 9 6 -4 7 -11 4 -17 -4 -7 -2 -8 4 -4 6 4 8 14 5 24 -3 9 -3 14
1 10 4 -3 16 2 27 13 11 11 24 17 29 14 6 -4 10 -1 10 4 0 6 2 11 5 11 3 0 5
-9 5 -19z m-59 -171 c10 0 18 -4 17 -9 -2 -5 0 -10 4 -10 4 -1 23 -8 42 -16
31 -13 35 -13 52 6 13 15 19 16 26 7 6 -10 8 -8 8 4 0 12 5 15 17 11 10 -4 14
-2 10 4 -4 6 -1 13 6 16 8 3 14 -2 14 -10 0 -8 -10 -18 -22 -23 -11 -4 -27
-15 -34 -23 -7 -9 -19 -13 -27 -10 -7 3 -17 -2 -20 -11 -8 -20 -18 -20 -37 -1
-8 8 -21 16 -28 17 -8 2 -22 12 -31 22 -10 10 -18 15 -18 11 0 -5 -5 -4 -11 2
-6 6 -8 17 -3 24 6 10 9 10 12 1 2 -7 12 -12 23 -12z"/>
<path d="M535 1074 c0 -37 4 -43 38 -63 l37 -22 0 43 c0 39 -3 45 -38 63 l-37
21 0 -42z m45 -19 c10 -12 10 -15 -2 -15 -8 0 -15 7 -15 15 0 8 1 15 2 15 2 0
8 -7 15 -15z"/>
<path d="M1460 1105 c0 -8 7 -15 15 -15 8 0 15 7 15 15 0 8 -7 15 -15 15 -8 0
-15 -7 -15 -15z"/>
<path d="M1620 1106 c0 -9 7 -16 16 -16 9 0 14 5 12 12 -6 18 -28 21 -28 4z"/>
<path d="M700 1040 c0 -47 3 -60 15 -60 11 0 15 11 15 37 l0 38 31 -38 c17
-20 35 -37 40 -37 5 0 9 27 9 60 0 49 -3 60 -16 60 -13 0 -15 -7 -10 -37 l6
-38 -32 38 c-47 53 -58 49 -58 -23z"/>
<path d="M1320 1040 l0 -60 31 0 c53 0 89 26 89 67 0 34 -27 53 -76 53 l-44 0
0 -60z m88 8 c3 -22 -2 -30 -23 -38 -36 -14 -35 -15 -35 31 0 38 1 40 28 37
21 -2 28 -9 30 -30z"/>
<path d="M847 1062 c-22 -24 -21 -45 2 -66 20 -18 69 -19 62 -1 -2 6 -12 9
-22 7 -9 -2 -20 2 -24 8 -4 6 7 10 29 10 40 0 43 6 20 38 -18 27 -45 28 -67 4z
m47 -11 c3 -5 -3 -11 -14 -14 -20 -5 -26 3 -13 16 9 10 21 9 27 -2z"/>
<path d="M948 1028 c-2 -33 1 -48 10 -48 7 0 12 13 12 30 0 19 6 33 16 37 20
8 32 -11 26 -43 -3 -17 0 -24 12 -24 12 0 16 10 16 39 0 45 -13 58 -57 58 -30
0 -31 -2 -35 -49z"/>
<path d="M1050 1075 c0 -4 6 -18 14 -33 28 -55 29 -72 7 -72 -12 0 -21 -4 -21
-10 0 -5 11 -10 24 -10 20 0 29 10 50 56 29 63 32 78 14 72 -6 -2 -17 -20 -23
-39 l-12 -34 -13 38 c-8 20 -20 37 -27 37 -7 0 -13 -2 -13 -5z"/>
<path d="M1178 1069 c-28 -16 -23 -67 6 -81 26 -11 56 -5 56 12 0 6 -10 8 -24
4 -13 -3 -27 -1 -30 5 -5 7 5 11 28 11 29 0 36 4 36 20 0 10 -9 24 -19 30 -24
12 -31 12 -53 -1z m49 -24 c2 -5 -8 -10 -22 -10 -25 0 -31 6 -18 19 9 9 36 3
40 -9z"/>
<path d="M1460 1030 c0 -38 4 -50 15 -50 11 0 15 12 15 50 0 38 -4 50 -15 50
-11 0 -15 -12 -15 -50z"/>
<path d="M1528 1069 c-28 -16 -23 -67 6 -81 26 -11 56 -5 56 12 0 6 -10 8 -24
4 -13 -3 -27 -1 -30 5 -5 7 5 11 28 11 29 0 36 4 36 20 0 10 -9 24 -19 30 -24
12 -31 12 -53 -1z m46 -18 c3 -5 -5 -11 -19 -13 -24 -5 -32 2 -18 15 9 10 31
9 37 -2z"/>
<path d="M1620 1031 c0 -39 4 -51 16 -51 12 0 14 10 12 47 -4 66 -28 70 -28 4z"/>
<path d="M700 888 c0 -18 4 -28 8 -22 4 6 14 14 22 17 12 4 11 6 -2 6 -10 1
-18 5 -18 10 0 5 8 12 18 14 13 4 11 5 -5 6 -19 1 -23 -4 -23 -31z"/>
<path d="M980 890 c0 -26 3 -30 28 -29 l27 1 -25 8 c-17 5 -19 8 -7 9 19 1 24
21 5 21 -9 0 -8 4 2 10 12 8 11 10 -7 10 -19 0 -23 -6 -23 -30z"/>
<path d="M1115 906 c-21 -15 -14 -46 10 -46 10 0 15 10 15 30 0 34 0 34 -25
16z m15 -26 c0 -5 -4 -10 -10 -10 -5 0 -10 5 -10 10 0 6 5 10 10 10 6 0 10 -4
10 -10z"/>
<path d="M1200 890 c0 -23 4 -30 20 -30 25 0 44 32 28 48 -7 7 -20 12 -30 12
-13 0 -18 -8 -18 -30z m35 0 c0 -7 -6 -15 -12 -17 -8 -3 -13 4 -13 17 0 13 5
20 13 18 6 -3 12 -11 12 -18z"/>
<path d="M765 902 c-13 -9 -18 -42 -7 -42 5 0 12 10 15 22 7 26 5 30 -8 20z"/>
<path d="M801 896 c-14 -17 -7 -36 14 -36 22 0 29 20 13 36 -13 13 -16 13 -27
0z m19 -12 c0 -8 -5 -12 -10 -9 -6 4 -8 11 -5 16 9 14 15 11 15 -7z"/>
<path d="M851 882 l0 -27 11 25 c11 25 11 25 15 3 3 -13 9 -23 14 -23 13 0 11
28 -3 37 -26 16 -38 11 -37 -15z"/>
<path d="M912 888 c4 -30 23 -33 23 -3 0 14 -6 25 -13 25 -8 0 -12 -9 -10 -22z"/>
<path d="M1041 882 c1 -17 3 -21 6 -9 2 9 8 17 13 17 5 0 11 -8 14 -17 3 -11
4 -9 3 6 -3 35 -37 38 -36 3z"/>
<path d="M1277 904 c-4 -4 -7 -16 -7 -26 0 -12 7 -18 23 -17 16 1 18 2 5 6
-10 2 -18 11 -18 20 0 13 2 13 17 2 14 -12 16 -12 12 0 -6 17 -22 24 -32 15z"/>
<path d="M1326 890 c3 -14 8 -27 11 -30 6 -7 23 23 22 40 0 10 -3 8 -8 -5 -8
-19 -8 -19 -20 0 -11 18 -11 18 -5 -5z"/>
</g>
</svg>
